HIERARCHY
ROOT joint_Root
{
	OFFSET 0.0 0.0 0.0
	CHANNELS 6 Xposition Yposition Zposition Zrotation Xrotation Yrotation 
	JOINT Hips
	{
		OFFSET 4.5925 91.4895 -427.239
		CHANNELS 6 Xposition Yposition Zposition Zrotation Xrotation Yrotation 
		JOINT Spine
		{
			OFFSET 15.7357 0.0 0.0
			CHANNELS 6 Xposition Yposition Zposition Zrotation Xrotation Yrotation 
			JOINT Chest
			{
				OFFSET 8.98455 -0.406207 0.0
				CHANNELS 6 Xposition Yposition Zposition Zrotation Xrotation Yrotation 
				JOINT Neck
				{
					OFFSET 16.3773 0.0 0.0
					CHANNELS 6 Xposition Yposition Zposition Zrotation Xrotation Yrotation 
					JOINT Head
					{
						OFFSET 6.45672 0.0 0.0
						CHANNELS 6 Xposition Yposition Zposition Zrotation Xrotation Yrotation 
						End Site
						{
							OFFSET 0.0 0.0 0.0
						}
					}
				}
				JOINT Shoulder_L
				{
					OFFSET 12.9942 -0.242716 4.98039
					CHANNELS 6 Xposition Yposition Zposition Zrotation Xrotation Yrotation 
					JOINT UpperArm_L
					{
						OFFSET 5.34809 0.0 0.0
						CHANNELS 6 Xposition Yposition Zposition Zrotation Xrotation Yrotation 
						JOINT LowerArm_L
						{
							OFFSET 24.3286 1.87007e-05 0.0
							CHANNELS 6 Xposition Yposition Zposition Zrotation Xrotation Yrotation 
							JOINT Hand_L
							{
								OFFSET 22.2916 0.0 0.0
								CHANNELS 6 Xposition Yposition Zposition Zrotation Xrotation Yrotation 
								End Site
								{
									OFFSET 0.0 0.0 0.0
								}
							}
						}
					}
				}
				JOINT Shoulder_R
				{
					OFFSET 12.9945 -0.242716 -4.98039
					CHANNELS 6 Xposition Yposition Zposition Zrotation Xrotation Yrotation 
					JOINT UpperArm_R
					{
						OFFSET -5.34813 0.0 0.0
						CHANNELS 6 Xposition Yposition Zposition Zrotation Xrotation Yrotation 
						JOINT LowerArm_R
						{
							OFFSET -24.3289 0.000322201 0.0
							CHANNELS 6 Xposition Yposition Zposition Zrotation Xrotation Yrotation 
							JOINT Hand_R
							{
								OFFSET -22.2915 -0.000108084 0.0
								CHANNELS 6 Xposition Yposition Zposition Zrotation Xrotation Yrotation 
								End Site
								{
									OFFSET 0.0 0.0 0.0
								}
							}
						}
					}
				}
			}
		}
		JOINT UpperLeg_L
		{
			OFFSET -2.19248 -6.46944 0.0
			CHANNELS 6 Xposition Yposition Zposition Zrotation Xrotation Yrotation 
			JOINT LowerLeg_L
			{
				OFFSET 39.0811 0.0 -1.23785e-05
				CHANNELS 6 Xposition Yposition Zposition Zrotation Xrotation Yrotation 
				JOINT Foot_L
				{
					OFFSET 40.9854 0.0 -1.26872e-05
					CHANNELS 6 Xposition Yposition Zposition Zrotation Xrotation Yrotation 
					JOINT Toes_L
					{
						OFFSET 11.7543 0.0 0.0
						CHANNELS 6 Xposition Yposition Zposition Zrotation Xrotation Yrotation 
						End Site
						{
							OFFSET 0.0 0.0 0.0
						}
					}
				}
			}
		}
		JOINT UpperLeg_R
		{
			OFFSET -2.19251 6.46944 0.0
			CHANNELS 6 Xposition Yposition Zposition Zrotation Xrotation Yrotation 
			JOINT LowerLeg_R
			{
				OFFSET -39.0811 -0.00228153 -0.0401928
				CHANNELS 6 Xposition Yposition Zposition Zrotation Xrotation Yrotation 
				JOINT Foot_R
				{
					OFFSET -40.9854 0.0 0.0
					CHANNELS 6 Xposition Yposition Zposition Zrotation Xrotation Yrotation 
					JOINT Toes_R
					{
						OFFSET -11.7543 0.0 0.0
						CHANNELS 6 Xposition Yposition Zposition Zrotation Xrotation Yrotation 
						End Site
						{
							OFFSET 0.0 0.0 0.0
						}
					}
				}
			}
		}
	}
}
MOTION
Frames:	9
Frame Time:	0.0333333
0.000000 0.000000 0.000000 0.000000 0.000000 -0.000000 92.910400 89.983700 181.791000 -78.249600 34.845700 166.288000 15.735700 0.000005 -0.000001 47.369400 83.269600 -45.014100 8.984550 -0.406207 -0.000000 2.360700 -9.221060 4.904230 16.377300 -0.000001 -0.000001 0.312273 6.627280 1.546770 6.456720 -0.000001 -0.000000 -5.461960 16.086800 -0.500916 12.994200 -0.242716 4.980390 -87.328000 -7.206230 -69.592600 5.348090 -0.000007 -0.000001 -47.862200 33.631600 -64.880600 24.328600 0.000019 0.000005 1.973890 -1.362070 -124.596000 22.291600 -0.000001 0.000005 14.561800 5.458810 -4.957630 12.994500 -0.242716 -4.980390 92.099000 -6.700430 -72.561500 -5.348130 -0.000001 -0.000004 -70.755800 32.170000 40.607100 -24.328900 0.000322 -0.000009 -5.881770 -2.340530 -68.367500 -22.291500 -0.000108 -0.000004 8.769220 5.567490 -9.560260 -2.192480 -6.469440 -0.000000 -176.642000 -1.258600 4.945210 39.081100 -0.000007 -0.000012 0.018207 -0.052432 19.150300 40.985400 -0.000006 -0.000013 18.149000 7.776980 -71.106900 11.754300 -0.000000 0.000003 -0.026982 -0.203295 -24.898600 -2.192510 6.469440 -0.000001 177.526000 8.360120 150.304000 -39.081100 -0.002282 -0.040193 0.051885 -0.073055 33.629300 -40.985400 0.000008 0.000006 5.545730 -4.148650 -63.904100 -11.754300 -0.000006 -0.000006 -0.022681 -0.181709 -24.002500
0.000000 0.000000 0.000000 0.000000 0.000000 -0.000000 96.937200 88.829800 180.219000 -79.248000 31.822600 167.118000 15.735700 0.000005 -0.000001 49.165800 83.099300 -46.950500 8.984550 -0.406207 -0.000000 2.889160 -9.110360 4.663530 16.377300 -0.000001 -0.000001 -0.910841 5.957430 1.774750 6.456720 -0.000001 -0.000000 -6.804960 14.617300 0.878470 12.994200 -0.242716 4.980390 -87.497600 -6.876160 -69.946500 5.348090 -0.000007 -0.000001 -48.106900 33.411200 -62.112600 24.328600 0.000019 0.000005 1.834120 -1.235560 -123.957000 22.291600 -0.000001 0.000005 13.998300 5.469300 -5.344780 12.994500 -0.242716 -4.980390 91.740400 -5.760780 -73.160600 -5.348130 -0.000001 -0.000004 -70.418600 28.801100 38.560700 -24.328900 0.000322 -0.000009 -6.915550 -2.451610 -70.568700 -22.291500 -0.000108 -0.000004 10.569300 5.568910 -9.625990 -2.192480 -6.469440 -0.000000 -175.441000 2.943230 5.956680 39.081100 -0.000007 -0.000012 0.025489 -0.063092 21.998300 40.985400 -0.000006 -0.000013 17.103000 6.606650 -72.930600 11.754300 -0.000000 0.000003 -0.037221 -0.248851 -26.791600 -2.192510 6.469440 -0.000001 177.844000 12.588100 150.253000 -39.081100 -0.002282 -0.040193 -0.007481 0.022636 25.489300 -40.985400 0.000008 0.000006 -1.536400 5.998250 -64.336800 -11.754300 -0.000006 -0.000006 -0.024556 -0.191328 -24.399800
0.000000 0.000000 0.000000 0.000000 0.000000 -0.000000 101.392000 87.245800 178.268000 -79.254900 29.936100 167.882000 15.735700 0.000005 -0.000001 55.013100 82.873800 -52.773600 8.984550 -0.406207 -0.000000 4.110980 -8.231640 4.776150 16.377300 -0.000001 -0.000001 -1.861920 5.535480 2.103660 6.456720 -0.000001 -0.000000 -8.841120 13.502900 1.060180 12.994200 -0.242716 4.980390 -88.079600 -5.416320 -70.444200 5.348090 -0.000007 -0.000001 -49.824600 34.860800 -55.908700 24.328600 0.000019 0.000005 1.828680 -1.064970 -120.176000 22.291600 -0.000001 0.000005 14.423800 5.468800 -5.321610 12.994500 -0.242716 -4.980390 90.677900 -2.500690 -74.848500 -5.348130 -0.000001 -0.000004 -68.643900 25.737000 34.321300 -24.328900 0.000322 -0.000009 -7.838480 -2.632140 -71.548400 -22.291500 -0.000108 -0.000004 14.770700 5.588200 -10.616400 -2.192480 -6.469440 -0.000000 -174.149000 6.933510 7.129010 39.081100 -0.000007 -0.000012 0.033305 -0.066590 26.571500 40.985400 -0.000006 -0.000013 15.990300 4.510260 -74.676600 11.754300 -0.000000 0.000003 -0.061403 -0.336322 -30.471400 -2.192510 6.469440 -0.000001 178.430000 15.009700 148.801000 -39.081100 -0.002282 -0.040193 -0.236742 0.481919 26.479000 -40.985400 0.000008 0.000006 -10.962300 8.643900 -61.439700 -11.754300 -0.000006 -0.000006 -0.027370 -0.205146 -24.971400
0.000000 0.000000 0.000000 0.000000 0.000000 -0.000000 106.084000 85.538400 175.766000 -79.269000 28.756400 168.850000 15.735700 0.000005 -0.000001 61.929200 82.841000 -59.713100 8.984550 -0.406207 -0.000000 5.031000 -6.777030 4.729410 16.377300 -0.000001 -0.000001 -2.341400 5.116250 2.387740 6.456720 -0.000001 -0.000000 -9.913150 12.996700 0.190331 12.994200 -0.242716 4.980390 -89.198500 -2.361650 -71.257600 5.348090 -0.000007 -0.000001 -52.675500 37.380000 -45.751000 24.328600 0.000019 0.000005 0.399710 -0.158778 -111.564000 22.291600 -0.000001 0.000005 17.354100 5.466390 -5.248150 12.994500 -0.242716 -4.980390 89.259700 3.168910 -76.828000 -5.348130 -0.000001 -0.000004 -65.415500 24.783500 28.232400 -24.328900 0.000322 -0.000009 -10.120400 -3.424760 -71.492900 -22.291500 -0.000108 -0.000004 22.228100 5.612310 -12.078500 -2.192480 -6.469440 -0.000000 -173.395000 9.378890 7.002910 39.081100 -0.000007 -0.000012 0.034789 -0.050999 34.299400 40.985400 -0.000006 -0.000013 14.862100 2.554490 -73.498500 11.754300 -0.000000 0.000003 -0.139356 -0.533286 -39.067500 -2.192510 6.469440 -0.000001 178.901000 14.803000 145.907000 -39.081100 -0.002282 -0.040193 -0.209725 0.283645 36.905900 -40.985400 0.000008 0.000006 -10.045500 7.733990 -56.391500 -11.754300 -0.000006 -0.000006 -0.029669 -0.215941 -25.418900
0.000000 0.000000 0.000000 0.000000 0.000000 -0.000000 110.686000 84.037300 172.635000 -79.335600 27.409400 171.057000 15.735700 0.000005 -0.000001 70.091800 82.697000 -67.652500 8.984550 -0.406207 -0.000000 6.096370 -4.995620 5.141820 16.377300 -0.000001 -0.000001 -2.848370 5.339770 1.065690 6.456720 -0.000001 -0.000000 -8.770370 11.340100 -0.654997 12.994200 -0.242716 4.980390 -90.608800 1.878550 -72.044100 5.348090 -0.000007 -0.000001 -57.246500 39.224300 -32.738900 24.328600 0.000019 0.000005 0.554006 -0.054054 -95.775500 22.291600 -0.000001 0.000005 18.907500 5.434270 -4.078760 12.994500 -0.242716 -4.980390 87.944900 9.599670 -77.853800 -5.348130 -0.000001 -0.000004 -60.258500 26.184200 19.334900 -24.328900 0.000322 -0.000009 -14.599500 -4.624400 -72.796400 -22.291500 -0.000108 -0.000004 24.341900 5.625110 -12.979600 -2.192480 -6.469440 -0.000000 -172.181000 9.073720 4.332670 39.081100 -0.000007 -0.000012 0.030540 -0.028708 46.767500 40.985400 -0.000006 -0.000013 13.708100 3.281700 -65.170600 11.754300 -0.000000 0.000003 -0.330091 -0.826904 -53.300100 -2.192510 6.469440 -0.000001 179.089000 16.856100 146.561000 -39.081100 -0.002282 -0.040193 -0.227015 0.213252 47.197900 -40.985400 0.000008 0.000006 -8.092700 9.267860 -65.072200 -11.754300 -0.000006 -0.000006 -0.006610 -0.076283 -19.678200
0.000000 0.000000 0.000000 0.000000 0.000000 -0.000000 114.785000 83.331500 169.452000 -78.802600 26.765400 174.123000 15.735700 0.000005 -0.000001 79.233200 81.981400 -76.241900 8.984550 -0.406207 -0.000000 8.082020 -2.974600 6.187990 16.377300 -0.000001 -0.000001 -2.354390 5.234310 0.730083 6.456720 -0.000001 -0.000000 -7.851190 10.674300 -2.863270 12.994200 -0.242716 4.980390 -91.173100 3.536590 -71.637000 5.348090 -0.000007 -0.000001 -63.430400 40.156100 -22.636400 24.328600 0.000019 0.000005 0.742404 0.290847 -69.424000 22.291600 -0.000001 0.000005 17.959100 5.425730 -3.812260 12.994500 -0.242716 -4.980390 87.509600 12.435200 -78.581100 -5.348130 -0.000001 -0.000004 -56.203100 29.297400 5.357700 -24.328900 0.000322 -0.000009 -15.537400 -3.526680 -77.528700 -22.291500 -0.000108 -0.000004 24.559100 5.643470 -14.428800 -2.192480 -6.469440 -0.000000 -170.536000 7.556050 -0.621562 39.081100 -0.000007 -0.000012 0.064065 -0.035395 61.076700 40.985400 -0.000006 -0.000013 10.084200 3.777220 -50.925100 11.754300 -0.000000 0.000003 -0.164906 -0.583364 -41.346900 -2.192510 6.469440 -0.000001 179.002000 16.741400 151.603000 -39.081100 -0.002282 -0.040193 -0.292795 0.233138 51.778800 -40.985400 0.000008 0.000006 -6.964590 9.140880 -71.451600 -11.754300 -0.000006 -0.000006 -0.000493 -0.007924 -16.895700
0.000000 0.000000 0.000000 0.000000 0.000000 -0.000000 117.663000 83.460000 166.688000 -79.508100 26.666500 175.510000 15.735700 0.000005 -0.000001 86.283100 81.986900 -83.242000 8.984550 -0.406207 -0.000000 8.261890 -1.020880 6.150350 16.377300 -0.000001 -0.000001 -1.494190 5.074880 0.920558 6.456720 -0.000001 -0.000000 -6.726800 10.624500 -3.553070 12.994200 -0.242716 4.980390 -91.475500 4.490760 -71.790700 5.348090 -0.000007 -0.000001 -63.956600 43.430200 -14.057100 24.328600 0.000019 0.000005 8.863100 6.938120 -52.237600 22.291600 -0.000001 0.000005 19.853300 5.438620 -4.278550 12.994500 -0.242716 -4.980390 87.508200 12.464000 -78.600500 -5.348130 -0.000001 -0.000004 -54.306900 30.935400 -10.388200 -24.328900 0.000322 -0.000009 -14.083500 -0.755363 -86.998400 -22.291500 -0.000108 -0.000004 22.638000 5.652570 -15.263600 -2.192480 -6.469440 -0.000000 -171.122000 5.820700 -8.950600 39.081100 -0.000007 -0.000012 0.148781 -0.044968 73.180800 40.985400 -0.000006 -0.000013 6.709790 -1.840460 -40.648700 11.754300 -0.000000 0.000003 -0.008429 -0.091512 -20.303700 -2.192510 6.469440 -0.000001 178.233000 15.728100 155.615000 -39.081100 -0.002282 -0.040193 -0.352685 0.274981 52.311300 -40.985400 0.000008 0.000006 -6.833760 8.190030 -75.066300 -11.754300 -0.000006 -0.000006 -0.000000 -0.000002 -16.573900
0.000000 0.000000 0.000000 0.000000 0.000000 -0.000000 119.756000 84.793200 163.582000 -80.886300 27.461700 175.976000 15.735700 0.000005 -0.000001 91.836500 82.138800 -89.415600 8.984550 -0.406207 -0.000000 7.942370 0.505538 4.801730 16.377300 -0.000001 -0.000001 -1.570810 5.428790 1.791460 6.456720 -0.000001 -0.000000 -6.023730 10.467300 -2.939740 12.994200 -0.242716 4.980390 -91.656600 4.803010 -70.942200 5.348090 -0.000007 -0.000001 -63.547700 47.182000 0.767145 24.328600 0.000019 0.000005 8.780740 5.571080 -57.897600 22.291600 -0.000001 0.000005 15.876600 5.515930 -7.198240 12.994500 -0.242716 -4.980390 88.162900 10.770300 -80.262100 -5.348130 -0.000001 -0.000004 -54.984100 31.631800 -25.024600 -24.328900 0.000322 -0.000009 -12.214600 1.571900 -97.224600 -22.291500 -0.000108 -0.000004 21.696400 5.649010 -14.922100 -2.192480 -6.469440 -0.000000 -174.000000 2.174410 -15.295700 39.081100 -0.000007 -0.000012 0.114001 -0.020860 79.627000 40.985400 -0.000006 -0.000013 11.292000 -7.302350 -48.128900 11.754300 -0.000000 0.000003 -0.011756 -0.116334 -21.319000 -2.192510 6.469440 -0.000001 176.999000 14.489800 160.382000 -39.081100 -0.002282 -0.040193 -0.177151 0.160926 48.266200 -40.985400 0.000008 0.000006 -5.752770 7.292850 -76.204700 -11.754300 -0.000006 -0.000006 -0.000035 -0.000583 -16.597500
0.000000 0.000000 0.000000 0.000000 0.000000 -0.000000 121.422000 86.787300 160.242000 -82.462600 28.056900 176.122000 15.735700 0.000005 -0.000001 102.047000 82.277800 -100.360000 8.984550 -0.406207 -0.000000 7.301730 3.204620 3.165950 16.377300 -0.000001 -0.000001 -1.365540 4.827700 2.350580 6.456720 -0.000001 -0.000000 -6.791710 7.740870 -2.230160 12.994200 -0.242716 4.980390 -90.884400 2.311350 -69.048400 5.348090 -0.000007 -0.000001 -65.373100 53.469700 12.818200 24.328600 0.000019 0.000005 3.389320 1.506080 -66.043900 22.291600 -0.000001 0.000005 13.836000 5.540110 -8.254990 12.994500 -0.242716 -4.980390 88.873000 7.031110 -80.869200 -5.348130 -0.000001 -0.000004 -57.373300 31.933800 -35.608000 -24.328900 0.000322 -0.000009 -11.469600 3.379500 -106.198000 -22.291500 -0.000108 -0.000004 21.278000 5.631940 -13.479800 -2.192480 -6.469440 -0.000000 -177.601000 -0.178074 -21.196400 39.081100 -0.000007 -0.000012 0.074848 -0.012245 80.702900 40.985400 -0.000006 -0.000013 12.369500 -8.595410 -52.169700 11.754300 -0.000000 0.000003 -0.010044 -0.103977 -20.813200 -2.192510 6.469440 -0.000001 175.414000 14.561800 166.030000 -39.081100 -0.002282 -0.040193 -0.019072 0.025639 41.076300 -40.985400 0.000008 0.000006 -4.477850 7.140180 -74.391700 -11.754300 -0.000006 -0.000006 -0.246344 -0.309449 -17.349500
